<svg width="512" height="512" xmlns="http://www.w3.org/2000/svg">

 <g>
  <title>background</title>
  <rect fill="none" id="canvas_background" height="402" width="582" y="-1" x="-1"/>
 </g>
 <g>
  <title>Layer 1</title>
  <path id="svg_1" d="m437.334,144l-181.328,0l-42.668,-48l-138.672,0c-23.469,0 -42.666,19.198 -42.666,42.667l0,234.666c0,23.469 19.197,42.667 42.666,42.667l362.668,0c23.469,0 42.666,-19.198 42.666,-42.667l0,-186.666c0,-23.469 -19.197,-42.667 -42.666,-42.667zm10.666,229.333c0,5.782 -4.885,10.667 -10.666,10.667l-362.668,0c-5.782,0 -10.666,-4.885 -10.666,-10.667l0,-197.333l373.334,0c5.781,0 10.666,4.885 10.666,10.667l0,186.666z"/>
  <g stroke="null" id="svg_6">
   <path stroke="null" id="svg_5" d="m256.000004,344.041668c-36.527656,0 -66.416664,-29.72125 -66.416664,-66.041664c0,-36.323415 29.889008,-66.041664 66.416664,-66.041664c18.264582,0 34.868245,7.704861 46.494683,19.812999l-35.42524,35.22172l77.486108,0l0,-77.048608l-26.012187,25.867319c-16.048681,-15.96207 -38.187569,-25.867319 -62.543365,-25.867319c-48.704044,0 -88.555552,39.626499 -88.555552,88.055552s39.293507,88.055552 88.555552,88.055552c40.778322,0 74.611574,-27.084087 85.235221,-64.040401l-23.42244,0c-9.431669,24.796143 -33.780924,42.026513 -61.812781,42.026513z"/>
  </g>
 </g>
</svg>