<svg width="512" height="512" xmlns="http://www.w3.org/2000/svg">

 <g>
  <title>background</title>
  <rect fill="none" id="canvas_background" height="402" width="582" y="-1" x="-1"/>
 </g>
 <g>
  <title>Layer 1</title>
  <path id="svg_1" d="m437.334,144l-181.328,0l-42.668,-48l-138.672,0c-23.469,0 -42.666,19.198 -42.666,42.667l0,234.666c0,23.469 19.197,42.667 42.666,42.667l362.668,0c23.469,0 42.666,-19.198 42.666,-42.667l0,-186.666c0,-23.469 -19.197,-42.667 -42.666,-42.667zm10.666,229.333c0,5.782 -4.885,10.667 -10.666,10.667l-362.668,0c-5.782,0 -10.666,-4.885 -10.666,-10.667l0,-197.333l373.334,0c5.781,0 10.666,4.885 10.666,10.667l0,186.666z"/>
  <rect stroke="#000" transform="rotate(21 180.77407836914054,251.34460449218753) " id="svg_15" height="240" width="161.363919" y="131.344609" x="100.092123" stroke-opacity="null" stroke-width="1.5" fill="#000000"/>
  <rect stroke="#000" id="svg_16" height="237" width="152.000002" y="158" x="53.299998" stroke-opacity="null" stroke-width="1.5" fill="#000000"/>
 </g>
</svg>