<svg width="512" height="512" xmlns="http://www.w3.org/2000/svg">

 <g>
  <title>background</title>
  <rect fill="none" id="canvas_background" height="402" width="582" y="-1" x="-1"/>
 </g>
 <g>
  <title>Layer 1</title>
  <path id="svg_1" d="m437.334,144l-181.328,0l-42.668,-48l-138.672,0c-23.469,0 -42.666,19.198 -42.666,42.667l0,234.666c0,23.469 19.197,42.667 42.666,42.667l362.668,0c23.469,0 42.666,-19.198 42.666,-42.667l0,-186.666c0,-23.469 -19.197,-42.667 -42.666,-42.667zm10.666,229.333c0,5.782 -4.885,10.667 -10.666,10.667l-362.668,0c-5.782,0 -10.666,-4.885 -10.666,-10.667l0,-197.333l373.334,0c5.781,0 10.666,4.885 10.666,10.667l0,186.666z"/>
  <g stroke="null" id="svg_11">
   <path stroke="null" id="svg_10" d="m214.676712,330.410498l-53.537835,-53.615503l-18.972223,18.08705l72.510059,72.350573l155.15662,-155.03508l-18.972223,-18.086458l-136.184397,136.299416z"/>
  </g>
 </g>
</svg>